<?xml version="1.0" encoding="utf-8"?>
<!DOCTYPE svg PUBLIC "-//W3C//DTD SVG 1.1//EN" "http://www.w3.org/Graphics/SVG/1.1/DTD/svg11.dtd">
<svg version="1.1" id="Layer_1" xmlns="http://www.w3.org/2000/svg" xmlns:xlink="http://www.w3.org/1999/xlink" x="0px" y="0px"
width="1155px" height="1155px" viewBox="0 0 1155 1155" enable-background="new 0 0 1155 1155" xml:space="preserve">
<rect x="0" y="0" width="1155" height="1155" fill="rgb(255,255,255)" /><g transform="translate(70,70)"><g><defs>
    <linearGradient gradientTransform="rotate(90)" id="grad">
    <stop offset="5%" stop-color="rgb(205,126,47)" />
    <stop offset="95%" stop-color="rgb(38,113,151)" />
    </linearGradient>
<mask id="gmask"><g>
<g transform="translate(455,0) scale(2.5,2.5)"><g transform="" style="fill: rgb(255, 255, 255);">
    <path d="M13.999,0v14c0,0-9.151-4.381-14-0.551C-0.001,13.449-0.242,0,13.999,0z"/>
</g></g><g transform="translate(490,0) scale(0.35,0.35)"><g transform="" style="fill: rgb(255, 255, 255);">
<rect width="100" height="100"/>
</g></g><g transform="translate(525,0) scale(2.5,2.5)"><g transform="" style="fill: rgb(255, 255, 255);">
    <path d="M13.999,13.999H0V0.028v-0.029h3.43C9.269-0.001,13.999,6.267,13.999,13.999z"/>
</g></g><g transform="translate(595,0) scale(2.5,2.5)"><g transform="" style="fill: rgb(255, 255, 255);">
    <path d="M13.999,0v14c0,0-9.151-4.381-14-0.551C-0.001,13.449-0.242,0,13.999,0z"/>
</g></g><g transform="translate(630,0) scale(0.35,0.35)"><g transform="" style="fill: rgb(255, 255, 255);">
<rect width="100" height="100"/>
</g></g><g transform="translate(665,0) scale(0.35,0.35)"><g transform="" style="fill: rgb(255, 255, 255);">
<rect width="100" height="100"/>
</g></g><g transform="translate(700,0) scale(2.5,2.5)"><g transform="" style="fill: rgb(255, 255, 255);">
    <path d="M0,14V0c0,0,9.15,4.38,14,0.55C14,0.55,14.24,14,0,14z"/>
</g></g><g transform="translate(315,35) scale(2.5,2.5)"><g transform="" style="fill: rgb(255, 255, 255);">
    <path d="M14,14H0c0,0,4.38-9.15,0.55-14C0.55,0,14-0.24,14,14z"/>
</g></g><g transform="translate(385,35) scale(2.5,2.5)"><g transform="" style="fill: rgb(255, 255, 255);">
    <path d="M13.999,0v14c0,0-9.151-4.381-14-0.551C-0.001,13.449-0.242,0,13.999,0z"/>
</g></g><g transform="translate(420,35) scale(2.5,2.5)"><g transform="" style="fill: rgb(255, 255, 255);">
    <path d="M13.999,13.999H0V0.028v-0.029h3.43C9.269-0.001,13.999,6.267,13.999,13.999z"/>
</g></g><g transform="translate(525,35) scale(0.35,0.35)"><g transform="" style="fill: rgb(255, 255, 255);">
<rect width="100" height="100"/>
</g></g><g transform="translate(560,35) scale(2.5,2.5)"><g transform="" style="fill: rgb(255, 255, 255);">
    <path d="M0,14V0c0,0,9.15,4.38,14,0.55C14,0.55,14.24,14,0,14z"/>
</g></g><g transform="translate(630,35) scale(0.35,0.35)"><g transform="" style="fill: rgb(255, 255, 255);">
<rect width="100" height="100"/>
</g></g><g transform="translate(315,70) scale(2.5,2.5)"><g transform="" style="fill: rgb(255, 255, 255);">
    <path d="M-0.001,0l14,0c0,0-4.381,9.151-0.551,14C13.448,14-0.001,14.24-0.001,0z"/>
</g></g><g transform="translate(420,70) scale(0.35,0.35)"><g transform="" style="fill: rgb(255, 255, 255);">
<rect width="100" height="100"/>
</g></g><g transform="translate(525,70) scale(2.5,2.5)"><g transform="" style="fill: rgb(255, 255, 255);">
    <path d="M-0.001,0l14,0c0,0-4.381,9.151-0.551,14C13.448,14-0.001,14.24-0.001,0z"/>
</g></g><g transform="translate(595,70) scale(2.5,2.5)"><g transform="" style="fill: rgb(255, 255, 255);">
    <path d="M13.999,0v14c0,0-9.151-4.381-14-0.551C-0.001,13.449-0.242,0,13.999,0z"/>
</g></g><g transform="translate(630,70) scale(0.35,0.35)"><g transform="" style="fill: rgb(255, 255, 255);">
<rect width="100" height="100"/>
</g></g><g transform="translate(665,70) scale(2.5,2.5)"><g transform="" style="fill: rgb(255, 255, 255);">
    <path d="M13.999,13.999H0V0.028v-0.029h3.43C9.269-0.001,13.999,6.267,13.999,13.999z"/>
</g></g><g transform="translate(350,105) scale(2.5,2.5)"><g transform="" style="fill: rgb(255, 255, 255);">
    <path d="M14,14H0c0,0,4.38-9.15,0.55-14C0.55,0,14-0.24,14,14z"/>
</g></g><g transform="translate(420,105) scale(2.5,2.5)"><g transform="" style="fill: rgb(255, 255, 255);">
    <path d="M-0.001,0l14,0c0,0-4.381,9.151-0.551,14C13.448,14-0.001,14.24-0.001,0z"/>
</g></g><g transform="translate(490,105) scale(0.07,0.07)"><g transform="" style="fill: rgb(255, 255, 255);">
<path d="M250,0c138.077,0,250,111.93,250,250c0,138.077-111.923,250-250,250C111.93,500,0,388.077,0,250C0,111.93,111.93,0,250,0z"
	/>
</g></g><g transform="translate(630,105) scale(0.35,0.35)"><g transform="" style="fill: rgb(255, 255, 255);">
<rect width="100" height="100"/>
</g></g><g transform="translate(665,105) scale(2.5,2.5)"><g transform="" style="fill: rgb(255, 255, 255);">
    <path d="M0,14V0h13.971H14v3.43C14,9.27,7.732,14,0,14z"/>
</g></g><g transform="translate(350,140) scale(2.5,2.5)"><g transform="" style="fill: rgb(255, 255, 255);">
    <path d="M-0.001,0l14,0c0,0-4.381,9.151-0.551,14C13.448,14-0.001,14.24-0.001,0z"/>
</g></g><g transform="translate(455,140) scale(2.5,2.5)"><g transform="" style="fill: rgb(255, 255, 255);">
    <path d="M14,14H0c0,0,4.38-9.15,0.55-14C0.55,0,14-0.24,14,14z"/>
</g></g><g transform="translate(525,140) scale(2.5,2.5)"><g transform="" style="fill: rgb(255, 255, 255);">
    <path d="M14,14H0c0,0,4.38-9.15,0.55-14C0.55,0,14-0.24,14,14z"/>
</g></g><g transform="translate(595,140) scale(2.5,2.5)"><g transform="" style="fill: rgb(255, 255, 255);">
    <path d="M13.999,0v14c0,0-9.151-4.381-14-0.551C-0.001,13.449-0.242,0,13.999,0z"/>
</g></g><g transform="translate(630,140) scale(2.5,2.5)"><g transform="" style="fill: rgb(255, 255, 255);">
    <path d="M0,14V0h13.971H14v3.43C14,9.27,7.732,14,0,14z"/>
</g></g><g transform="translate(280,175) scale(2.5,2.5)"><g transform="" style="fill: rgb(255, 255, 255);">
    <path d="M14,14H0c0,0,4.38-9.15,0.55-14C0.55,0,14-0.24,14,14z"/>
</g></g><g transform="translate(385,175) scale(2.5,2.5)"><g transform="" style="fill: rgb(255, 255, 255);">
    <path d="M13.999,0v14c0,0-9.151-4.381-14-0.551C-0.001,13.449-0.242,0,13.999,0z"/>
</g></g><g transform="translate(420,175) scale(0.35,0.35)"><g transform="" style="fill: rgb(255, 255, 255);">
<rect width="100" height="100"/>
</g></g><g transform="translate(455,175) scale(2.5,2.5)"><g transform="" style="fill: rgb(255, 255, 255);">
    <path d="M0,14V0h13.971H14v3.43C14,9.27,7.732,14,0,14z"/>
</g></g><g transform="translate(525,175) scale(2.5,2.5)"><g transform="" style="fill: rgb(255, 255, 255);">
    <path d="M-0.001,0l14,0c0,0-4.381,9.151-0.551,14C13.448,14-0.001,14.24-0.001,0z"/>
</g></g><g transform="translate(665,175) scale(0.07,0.07)"><g transform="" style="fill: rgb(255, 255, 255);">
<path d="M250,0c138.077,0,250,111.93,250,250c0,138.077-111.923,250-250,250C111.93,500,0,388.077,0,250C0,111.93,111.93,0,250,0z"
	/>
</g></g><g transform="translate(280,210) scale(2.5,2.5)"><g transform="" style="fill: rgb(255, 255, 255);">
    <path d="M-0.001,0l14,0c0,0-4.381,9.151-0.551,14C13.448,14-0.001,14.24-0.001,0z"/>
</g></g><g transform="translate(350,210) scale(0.07,0.07)"><g transform="" style="fill: rgb(255, 255, 255);">
<path d="M250,0c138.077,0,250,111.93,250,250c0,138.077-111.923,250-250,250C111.93,500,0,388.077,0,250C0,111.93,111.93,0,250,0z"
	/>
</g></g><g transform="translate(420,210) scale(2.5,2.5)"><g transform="" style="fill: rgb(255, 255, 255);">
    <path d="M-0.001,0l14,0c0,0-4.381,9.151-0.551,14C13.448,14-0.001,14.24-0.001,0z"/>
</g></g><g transform="translate(490,210) scale(0.07,0.07)"><g transform="" style="fill: rgb(255, 255, 255);">
<path d="M250,0c138.077,0,250,111.93,250,250c0,138.077-111.923,250-250,250C111.93,500,0,388.077,0,250C0,111.93,111.93,0,250,0z"
	/>
</g></g><g transform="translate(560,210) scale(2.5,2.5)"><g transform="" style="fill: rgb(255, 255, 255);">
    <path d="M14,14H0c0,0,4.38-9.15,0.55-14C0.55,0,14-0.24,14,14z"/>
</g></g><g transform="translate(630,210) scale(2.5,2.5)"><g transform="" style="fill: rgb(255, 255, 255);">
    <path d="M14,14H0c0,0,4.38-9.15,0.55-14C0.55,0,14-0.24,14,14z"/>
</g></g><g transform="translate(700,210) scale(2.5,2.5)"><g transform="" style="fill: rgb(255, 255, 255);">
    <path d="M14,14H0c0,0,4.38-9.15,0.55-14C0.55,0,14-0.24,14,14z"/>
</g></g><g transform="translate(385,245) scale(0.07,0.07)"><g transform="" style="fill: rgb(255, 255, 255);">
<path d="M250,0c138.077,0,250,111.93,250,250c0,138.077-111.923,250-250,250C111.93,500,0,388.077,0,250C0,111.93,111.93,0,250,0z"
	/>
</g></g><g transform="translate(525,245) scale(2.5,2.5)"><g transform="" style="fill: rgb(255, 255, 255);">
    <path d="M13.999-0.001v14H0.029H0v-3.431C0,4.729,6.267-0.001,13.999-0.001z"/>
</g></g><g transform="translate(560,245) scale(0.35,0.35)"><g transform="" style="fill: rgb(255, 255, 255);">
<rect width="100" height="100"/>
</g></g><g transform="translate(595,245) scale(0.35,0.35)"><g transform="" style="fill: rgb(255, 255, 255);">
<rect width="100" height="100"/>
</g></g><g transform="translate(630,245) scale(2.5,2.5)"><g transform="" style="fill: rgb(255, 255, 255);">
    <path d="M0,14V0h13.971H14v3.43C14,9.27,7.732,14,0,14z"/>
</g></g><g transform="translate(700,245) scale(0.35,0.35)"><g transform="" style="fill: rgb(255, 255, 255);">
<rect width="100" height="100"/>
</g></g><g transform="translate(0,280) scale(0.07,0.07)"><g transform="" style="fill: rgb(255, 255, 255);">
<path d="M250,0c138.077,0,250,111.93,250,250c0,138.077-111.923,250-250,250C111.93,500,0,388.077,0,250C0,111.93,111.93,0,250,0z"
	/>
</g></g><g transform="translate(105,280) scale(0.07,0.07)"><g transform="" style="fill: rgb(255, 255, 255);">
<path d="M250,0c138.077,0,250,111.93,250,250c0,138.077-111.923,250-250,250C111.93,500,0,388.077,0,250C0,111.93,111.93,0,250,0z"
	/>
</g></g><g transform="translate(175,280) scale(2.5,2.5)"><g transform="" style="fill: rgb(255, 255, 255);">
    <path d="M13.999-0.001v14H0.029H0v-3.431C0,4.729,6.267-0.001,13.999-0.001z"/>
</g></g><g transform="translate(210,280) scale(2.5,2.5)"><g transform="" style="fill: rgb(255, 255, 255);">
    <path d="M0,14V0c0,0,9.15,4.38,14,0.55C14,0.55,14.24,14,0,14z"/>
</g></g><g transform="translate(280,280) scale(2.5,2.5)"><g transform="" style="fill: rgb(255, 255, 255);">
    <path d="M13.999-0.001v14H0.029H0v-3.431C0,4.729,6.267-0.001,13.999-0.001z"/>
</g></g><g transform="translate(315,280) scale(0.35,0.35)"><g transform="" style="fill: rgb(255, 255, 255);">
<rect width="100" height="100"/>
</g></g><g transform="translate(350,280) scale(2.5,2.5)"><g transform="" style="fill: rgb(255, 255, 255);">
    <path d="M13.999,13.999H0V0.028v-0.029h3.43C9.269-0.001,13.999,6.267,13.999,13.999z"/>
</g></g><g transform="translate(455,280) scale(2.5,2.5)"><g transform="" style="fill: rgb(255, 255, 255);">
    <path d="M13.999,0v14c0,0-9.151-4.381-14-0.551C-0.001,13.449-0.242,0,13.999,0z"/>
</g></g><g transform="translate(490,280) scale(0.35,0.35)"><g transform="" style="fill: rgb(255, 255, 255);">
<rect width="100" height="100"/>
</g></g><g transform="translate(525,280) scale(2.5,2.5)"><g transform="" style="fill: rgb(255, 255, 255);">
    <path d="M0,14V0h13.971H14v3.43C14,9.27,7.732,14,0,14z"/>
</g></g><g transform="translate(700,280) scale(0.35,0.35)"><g transform="" style="fill: rgb(255, 255, 255);">
<rect width="100" height="100"/>
</g></g><g transform="translate(735,280) scale(2.5,2.5)"><g transform="" style="fill: rgb(255, 255, 255);">
    <path d="M13.999,13.999H0V0.028v-0.029h3.43C9.269-0.001,13.999,6.267,13.999,13.999z"/>
</g></g><g transform="translate(805,280) scale(0.07,0.07)"><g transform="" style="fill: rgb(255, 255, 255);">
<path d="M250,0c138.077,0,250,111.93,250,250c0,138.077-111.923,250-250,250C111.93,500,0,388.077,0,250C0,111.93,111.93,0,250,0z"
	/>
</g></g><g transform="translate(70,315) scale(0.07,0.07)"><g transform="" style="fill: rgb(255, 255, 255);">
<path d="M250,0c138.077,0,250,111.93,250,250c0,138.077-111.923,250-250,250C111.93,500,0,388.077,0,250C0,111.93,111.93,0,250,0z"
	/>
</g></g><g transform="translate(140,315) scale(2.5,2.5)"><g transform="" style="fill: rgb(255, 255, 255);">
    <path d="M13.999-0.001v14H0.029H0v-3.431C0,4.729,6.267-0.001,13.999-0.001z"/>
</g></g><g transform="translate(175,315) scale(2.5,2.5)"><g transform="" style="fill: rgb(255, 255, 255);">
    <path d="M0,14V0h13.971H14v3.43C14,9.27,7.732,14,0,14z"/>
</g></g><g transform="translate(245,315) scale(2.5,2.5)"><g transform="" style="fill: rgb(255, 255, 255);">
    <path d="M13.999,0v14c0,0-9.151-4.381-14-0.551C-0.001,13.449-0.242,0,13.999,0z"/>
</g></g><g transform="translate(280,315) scale(2.5,2.5)"><g transform="" style="fill: rgb(255, 255, 255);">
    <path d="M0,14V0h13.971H14v3.43C14,9.27,7.732,14,0,14z"/>
</g></g><g transform="translate(350,315) scale(2.5,2.5)"><g transform="" style="fill: rgb(255, 255, 255);">
    <path d="M-0.001,0l14,0c0,0-4.381,9.151-0.551,14C13.448,14-0.001,14.24-0.001,0z"/>
</g></g><g transform="translate(420,315) scale(2.5,2.5)"><g transform="" style="fill: rgb(255, 255, 255);">
    <path d="M14,14H0c0,0,4.38-9.15,0.55-14C0.55,0,14-0.24,14,14z"/>
</g></g><g transform="translate(560,315) scale(2.5,2.5)"><g transform="" style="fill: rgb(255, 255, 255);">
    <path d="M14,14H0c0,0,4.38-9.15,0.55-14C0.55,0,14-0.24,14,14z"/>
</g></g><g transform="translate(700,315) scale(0.35,0.35)"><g transform="" style="fill: rgb(255, 255, 255);">
<rect width="100" height="100"/>
</g></g><g transform="translate(735,315) scale(0.35,0.35)"><g transform="" style="fill: rgb(255, 255, 255);">
<rect width="100" height="100"/>
</g></g><g transform="translate(770,315) scale(2.5,2.5)"><g transform="" style="fill: rgb(255, 255, 255);">
    <path d="M0,14V0c0,0,9.15,4.38,14,0.55C14,0.55,14.24,14,0,14z"/>
</g></g><g transform="translate(875,315) scale(2.5,2.5)"><g transform="" style="fill: rgb(255, 255, 255);">
    <path d="M14,14H0c0,0,4.38-9.15,0.55-14C0.55,0,14-0.24,14,14z"/>
</g></g><g transform="translate(980,315) scale(0.07,0.07)"><g transform="" style="fill: rgb(255, 255, 255);">
<path d="M250,0c138.077,0,250,111.93,250,250c0,138.077-111.923,250-250,250C111.93,500,0,388.077,0,250C0,111.93,111.93,0,250,0z"
	/>
</g></g><g transform="translate(0,350) scale(2.5,2.5)"><g transform="" style="fill: rgb(255, 255, 255);">
    <path d="M13.999,0v14c0,0-9.151-4.381-14-0.551C-0.001,13.449-0.242,0,13.999,0z"/>
</g></g><g transform="translate(35,350) scale(2.5,2.5)"><g transform="" style="fill: rgb(255, 255, 255);">
    <path d="M13.999,13.999H0V0.028v-0.029h3.43C9.269-0.001,13.999,6.267,13.999,13.999z"/>
</g></g><g transform="translate(105,350) scale(2.5,2.5)"><g transform="" style="fill: rgb(255, 255, 255);">
    <path d="M13.999-0.001v14H0.029H0v-3.431C0,4.729,6.267-0.001,13.999-0.001z"/>
</g></g><g transform="translate(140,350) scale(0.35,0.35)"><g transform="" style="fill: rgb(255, 255, 255);">
<rect width="100" height="100"/>
</g></g><g transform="translate(210,350) scale(0.07,0.07)"><g transform="" style="fill: rgb(255, 255, 255);">
<path d="M250,0c138.077,0,250,111.93,250,250c0,138.077-111.923,250-250,250C111.93,500,0,388.077,0,250C0,111.93,111.93,0,250,0z"
	/>
</g></g><g transform="translate(420,350) scale(2.5,2.5)"><g transform="" style="fill: rgb(255, 255, 255);">
        <path d="M0-0.001h14v13.97v0.029l-3.431,0.001C4.731,13.999,0,7.731,0-0.001z"/>
</g></g><g transform="translate(455,350) scale(2.5,2.5)"><g transform="" style="fill: rgb(255, 255, 255);">
    <path d="M13.999,13.999H0V0.028v-0.029h3.43C9.269-0.001,13.999,6.267,13.999,13.999z"/>
</g></g><g transform="translate(560,350) scale(0.35,0.35)"><g transform="" style="fill: rgb(255, 255, 255);">
<rect width="100" height="100"/>
</g></g><g transform="translate(595,350) scale(2.5,2.5)"><g transform="" style="fill: rgb(255, 255, 255);">
    <path d="M0,14V0c0,0,9.15,4.38,14,0.55C14,0.55,14.24,14,0,14z"/>
</g></g><g transform="translate(665,350) scale(2.5,2.5)"><g transform="" style="fill: rgb(255, 255, 255);">
    <path d="M13.999-0.001v14H0.029H0v-3.431C0,4.729,6.267-0.001,13.999-0.001z"/>
</g></g><g transform="translate(700,350) scale(0.35,0.35)"><g transform="" style="fill: rgb(255, 255, 255);">
<rect width="100" height="100"/>
</g></g><g transform="translate(805,350) scale(2.5,2.5)"><g transform="" style="fill: rgb(255, 255, 255);">
    <path d="M13.999-0.001v14H0.029H0v-3.431C0,4.729,6.267-0.001,13.999-0.001z"/>
</g></g><g transform="translate(840,350) scale(0.35,0.35)"><g transform="" style="fill: rgb(255, 255, 255);">
<rect width="100" height="100"/>
</g></g><g transform="translate(875,350) scale(0.35,0.35)"><g transform="" style="fill: rgb(255, 255, 255);">
<rect width="100" height="100"/>
</g></g><g transform="translate(910,350) scale(0.35,0.35)"><g transform="" style="fill: rgb(255, 255, 255);">
<rect width="100" height="100"/>
</g></g><g transform="translate(945,350) scale(2.5,2.5)"><g transform="" style="fill: rgb(255, 255, 255);">
    <path d="M13.999,13.999H0V0.028v-0.029h3.43C9.269-0.001,13.999,6.267,13.999,13.999z"/>
</g></g><g transform="translate(35,385) scale(2.5,2.5)"><g transform="" style="fill: rgb(255, 255, 255);">
        <path d="M0-0.001h14v13.97v0.029l-3.431,0.001C4.731,13.999,0,7.731,0-0.001z"/>
</g></g><g transform="translate(70,385) scale(0.35,0.35)"><g transform="" style="fill: rgb(255, 255, 255);">
<rect width="100" height="100"/>
</g></g><g transform="translate(105,385) scale(0.35,0.35)"><g transform="" style="fill: rgb(255, 255, 255);">
<rect width="100" height="100"/>
</g></g><g transform="translate(140,385) scale(0.35,0.35)"><g transform="" style="fill: rgb(255, 255, 255);">
<rect width="100" height="100"/>
</g></g><g transform="translate(455,385) scale(0.35,0.35)"><g transform="" style="fill: rgb(255, 255, 255);">
<rect width="100" height="100"/>
</g></g><g transform="translate(525,385) scale(2.5,2.5)"><g transform="" style="fill: rgb(255, 255, 255);">
    <path d="M13.999,0v14c0,0-9.151-4.381-14-0.551C-0.001,13.449-0.242,0,13.999,0z"/>
</g></g><g transform="translate(560,385) scale(0.35,0.35)"><g transform="" style="fill: rgb(255, 255, 255);">
<rect width="100" height="100"/>
</g></g><g transform="translate(630,385) scale(2.5,2.5)"><g transform="" style="fill: rgb(255, 255, 255);">
    <path d="M13.999-0.001v14H0.029H0v-3.431C0,4.729,6.267-0.001,13.999-0.001z"/>
</g></g><g transform="translate(665,385) scale(0.35,0.35)"><g transform="" style="fill: rgb(255, 255, 255);">
<rect width="100" height="100"/>
</g></g><g transform="translate(700,385) scale(0.35,0.35)"><g transform="" style="fill: rgb(255, 255, 255);">
<rect width="100" height="100"/>
</g></g><g transform="translate(805,385) scale(2.5,2.5)"><g transform="" style="fill: rgb(255, 255, 255);">
    <path d="M-0.001,0l14,0c0,0-4.381,9.151-0.551,14C13.448,14-0.001,14.24-0.001,0z"/>
</g></g><g transform="translate(910,385) scale(2.5,2.5)"><g transform="" style="fill: rgb(255, 255, 255);">
        <path d="M0-0.001h14v13.97v0.029l-3.431,0.001C4.731,13.999,0,7.731,0-0.001z"/>
</g></g><g transform="translate(945,385) scale(0.35,0.35)"><g transform="" style="fill: rgb(255, 255, 255);">
<rect width="100" height="100"/>
</g></g><g transform="translate(70,420) scale(0.35,0.35)"><g transform="" style="fill: rgb(255, 255, 255);">
<rect width="100" height="100"/>
</g></g><g transform="translate(140,420) scale(0.35,0.35)"><g transform="" style="fill: rgb(255, 255, 255);">
<rect width="100" height="100"/>
</g></g><g transform="translate(210,420) scale(0.07,0.07)"><g transform="" style="fill: rgb(255, 255, 255);">
<path d="M250,0c138.077,0,250,111.93,250,250c0,138.077-111.923,250-250,250C111.93,500,0,388.077,0,250C0,111.93,111.93,0,250,0z"
	/>
</g></g><g transform="translate(420,420) scale(2.5,2.5)"><g transform="" style="fill: rgb(255, 255, 255);">
    <path d="M13.999-0.001v14H0.029H0v-3.431C0,4.729,6.267-0.001,13.999-0.001z"/>
</g></g><g transform="translate(455,420) scale(0.35,0.35)"><g transform="" style="fill: rgb(255, 255, 255);">
<rect width="100" height="100"/>
</g></g><g transform="translate(560,420) scale(2.5,2.5)"><g transform="" style="fill: rgb(255, 255, 255);">
        <path d="M0-0.001h14v13.97v0.029l-3.431,0.001C4.731,13.999,0,7.731,0-0.001z"/>
</g></g><g transform="translate(595,420) scale(0.35,0.35)"><g transform="" style="fill: rgb(255, 255, 255);">
<rect width="100" height="100"/>
</g></g><g transform="translate(630,420) scale(0.35,0.35)"><g transform="" style="fill: rgb(255, 255, 255);">
<rect width="100" height="100"/>
</g></g><g transform="translate(665,420) scale(0.35,0.35)"><g transform="" style="fill: rgb(255, 255, 255);">
<rect width="100" height="100"/>
</g></g><g transform="translate(700,420) scale(0.35,0.35)"><g transform="" style="fill: rgb(255, 255, 255);">
<rect width="100" height="100"/>
</g></g><g transform="translate(735,420) scale(0.35,0.35)"><g transform="" style="fill: rgb(255, 255, 255);">
<rect width="100" height="100"/>
</g></g><g transform="translate(770,420) scale(2.5,2.5)"><g transform="" style="fill: rgb(255, 255, 255);">
    <path d="M0,14V0c0,0,9.15,4.38,14,0.55C14,0.55,14.24,14,0,14z"/>
</g></g><g transform="translate(875,420) scale(0.07,0.07)"><g transform="" style="fill: rgb(255, 255, 255);">
<path d="M250,0c138.077,0,250,111.93,250,250c0,138.077-111.923,250-250,250C111.93,500,0,388.077,0,250C0,111.93,111.93,0,250,0z"
	/>
</g></g><g transform="translate(945,420) scale(2.5,2.5)"><g transform="" style="fill: rgb(255, 255, 255);">
        <path d="M0-0.001h14v13.97v0.029l-3.431,0.001C4.731,13.999,0,7.731,0-0.001z"/>
</g></g><g transform="translate(980,420) scale(2.5,2.5)"><g transform="" style="fill: rgb(255, 255, 255);">
    <path d="M0,14V0c0,0,9.15,4.38,14,0.55C14,0.55,14.24,14,0,14z"/>
</g></g><g transform="translate(35,455) scale(2.5,2.5)"><g transform="" style="fill: rgb(255, 255, 255);">
    <path d="M13.999-0.001v14H0.029H0v-3.431C0,4.729,6.267-0.001,13.999-0.001z"/>
</g></g><g transform="translate(70,455) scale(2.5,2.5)"><g transform="" style="fill: rgb(255, 255, 255);">
    <path d="M0,14V0h13.971H14v3.43C14,9.27,7.732,14,0,14z"/>
</g></g><g transform="translate(140,455) scale(2.5,2.5)"><g transform="" style="fill: rgb(255, 255, 255);">
        <path d="M0-0.001h14v13.97v0.029l-3.431,0.001C4.731,13.999,0,7.731,0-0.001z"/>
</g></g><g transform="translate(175,455) scale(2.5,2.5)"><g transform="" style="fill: rgb(255, 255, 255);">
    <path d="M0,14V0c0,0,9.15,4.38,14,0.55C14,0.55,14.24,14,0,14z"/>
</g></g><g transform="translate(245,455) scale(2.5,2.5)"><g transform="" style="fill: rgb(255, 255, 255);">
    <path d="M14,14H0c0,0,4.38-9.15,0.55-14C0.55,0,14-0.24,14,14z"/>
</g></g><g transform="translate(315,455) scale(2.5,2.5)"><g transform="" style="fill: rgb(255, 255, 255);">
    <path d="M13.999-0.001v14H0.029H0v-3.431C0,4.729,6.267-0.001,13.999-0.001z"/>
</g></g><g transform="translate(350,455) scale(0.35,0.35)"><g transform="" style="fill: rgb(255, 255, 255);">
<rect width="100" height="100"/>
</g></g><g transform="translate(385,455) scale(0.35,0.35)"><g transform="" style="fill: rgb(255, 255, 255);">
<rect width="100" height="100"/>
</g></g><g transform="translate(420,455) scale(0.35,0.35)"><g transform="" style="fill: rgb(255, 255, 255);">
<rect width="100" height="100"/>
</g></g><g transform="translate(455,455) scale(2.5,2.5)"><g transform="" style="fill: rgb(255, 255, 255);">
    <path d="M0,14V0h13.971H14v3.43C14,9.27,7.732,14,0,14z"/>
</g></g><g transform="translate(665,455) scale(2.5,2.5)"><g transform="" style="fill: rgb(255, 255, 255);">
        <path d="M0-0.001h14v13.97v0.029l-3.431,0.001C4.731,13.999,0,7.731,0-0.001z"/>
</g></g><g transform="translate(700,455) scale(2.5,2.5)"><g transform="" style="fill: rgb(255, 255, 255);">
    <path d="M0,14V0h13.971H14v3.43C14,9.27,7.732,14,0,14z"/>
</g></g><g transform="translate(0,490) scale(2.5,2.5)"><g transform="" style="fill: rgb(255, 255, 255);">
    <path d="M13.999,0v14c0,0-9.151-4.381-14-0.551C-0.001,13.449-0.242,0,13.999,0z"/>
</g></g><g transform="translate(35,490) scale(2.5,2.5)"><g transform="" style="fill: rgb(255, 255, 255);">
    <path d="M0,14V0h13.971H14v3.43C14,9.27,7.732,14,0,14z"/>
</g></g><g transform="translate(210,490) scale(2.5,2.5)"><g transform="" style="fill: rgb(255, 255, 255);">
    <path d="M13.999,0v14c0,0-9.151-4.381-14-0.551C-0.001,13.449-0.242,0,13.999,0z"/>
</g></g><g transform="translate(245,490) scale(0.35,0.35)"><g transform="" style="fill: rgb(255, 255, 255);">
<rect width="100" height="100"/>
</g></g><g transform="translate(280,490) scale(0.35,0.35)"><g transform="" style="fill: rgb(255, 255, 255);">
<rect width="100" height="100"/>
</g></g><g transform="translate(315,490) scale(0.35,0.35)"><g transform="" style="fill: rgb(255, 255, 255);">
<rect width="100" height="100"/>
</g></g><g transform="translate(350,490) scale(0.35,0.35)"><g transform="" style="fill: rgb(255, 255, 255);">
<rect width="100" height="100"/>
</g></g><g transform="translate(385,490) scale(0.35,0.35)"><g transform="" style="fill: rgb(255, 255, 255);">
<rect width="100" height="100"/>
</g></g><g transform="translate(490,490) scale(0.07,0.07)"><g transform="" style="fill: rgb(255, 255, 255);">
<path d="M250,0c138.077,0,250,111.93,250,250c0,138.077-111.923,250-250,250C111.93,500,0,388.077,0,250C0,111.93,111.93,0,250,0z"
	/>
</g></g><g transform="translate(560,490) scale(2.5,2.5)"><g transform="" style="fill: rgb(255, 255, 255);">
    <path d="M14,14H0c0,0,4.38-9.15,0.55-14C0.55,0,14-0.24,14,14z"/>
</g></g><g transform="translate(770,490) scale(2.5,2.5)"><g transform="" style="fill: rgb(255, 255, 255);">
    <path d="M13.999-0.001v14H0.029H0v-3.431C0,4.729,6.267-0.001,13.999-0.001z"/>
</g></g><g transform="translate(805,490) scale(0.35,0.35)"><g transform="" style="fill: rgb(255, 255, 255);">
<rect width="100" height="100"/>
</g></g><g transform="translate(840,490) scale(0.35,0.35)"><g transform="" style="fill: rgb(255, 255, 255);">
<rect width="100" height="100"/>
</g></g><g transform="translate(875,490) scale(0.35,0.35)"><g transform="" style="fill: rgb(255, 255, 255);">
<rect width="100" height="100"/>
</g></g><g transform="translate(910,490) scale(0.35,0.35)"><g transform="" style="fill: rgb(255, 255, 255);">
<rect width="100" height="100"/>
</g></g><g transform="translate(945,490) scale(0.35,0.35)"><g transform="" style="fill: rgb(255, 255, 255);">
<rect width="100" height="100"/>
</g></g><g transform="translate(980,490) scale(2.5,2.5)"><g transform="" style="fill: rgb(255, 255, 255);">
    <path d="M0,14V0c0,0,9.15,4.38,14,0.55C14,0.55,14.24,14,0,14z"/>
</g></g><g transform="translate(280,525) scale(2.5,2.5)"><g transform="" style="fill: rgb(255, 255, 255);">
        <path d="M0-0.001h14v13.97v0.029l-3.431,0.001C4.731,13.999,0,7.731,0-0.001z"/>
</g></g><g transform="translate(315,525) scale(2.5,2.5)"><g transform="" style="fill: rgb(255, 255, 255);">
    <path d="M0,14V0h13.971H14v3.43C14,9.27,7.732,14,0,14z"/>
</g></g><g transform="translate(385,525) scale(0.35,0.35)"><g transform="" style="fill: rgb(255, 255, 255);">
<rect width="100" height="100"/>
</g></g><g transform="translate(455,525) scale(2.5,2.5)"><g transform="" style="fill: rgb(255, 255, 255);">
    <path d="M14,14H0c0,0,4.38-9.15,0.55-14C0.55,0,14-0.24,14,14z"/>
</g></g><g transform="translate(525,525) scale(2.5,2.5)"><g transform="" style="fill: rgb(255, 255, 255);">
    <path d="M13.999,0v14c0,0-9.151-4.381-14-0.551C-0.001,13.449-0.242,0,13.999,0z"/>
</g></g><g transform="translate(560,525) scale(0.35,0.35)"><g transform="" style="fill: rgb(255, 255, 255);">
<rect width="100" height="100"/>
</g></g><g transform="translate(595,525) scale(0.35,0.35)"><g transform="" style="fill: rgb(255, 255, 255);">
<rect width="100" height="100"/>
</g></g><g transform="translate(630,525) scale(0.35,0.35)"><g transform="" style="fill: rgb(255, 255, 255);">
<rect width="100" height="100"/>
</g></g><g transform="translate(665,525) scale(0.35,0.35)"><g transform="" style="fill: rgb(255, 255, 255);">
<rect width="100" height="100"/>
</g></g><g transform="translate(700,525) scale(0.35,0.35)"><g transform="" style="fill: rgb(255, 255, 255);">
<rect width="100" height="100"/>
</g></g><g transform="translate(735,525) scale(0.35,0.35)"><g transform="" style="fill: rgb(255, 255, 255);">
<rect width="100" height="100"/>
</g></g><g transform="translate(770,525) scale(2.5,2.5)"><g transform="" style="fill: rgb(255, 255, 255);">
    <path d="M0,14V0h13.971H14v3.43C14,9.27,7.732,14,0,14z"/>
</g></g><g transform="translate(840,525) scale(2.5,2.5)"><g transform="" style="fill: rgb(255, 255, 255);">
        <path d="M0-0.001h14v13.97v0.029l-3.431,0.001C4.731,13.999,0,7.731,0-0.001z"/>
</g></g><g transform="translate(875,525) scale(2.5,2.5)"><g transform="" style="fill: rgb(255, 255, 255);">
    <path d="M0,14V0h13.971H14v3.43C14,9.27,7.732,14,0,14z"/>
</g></g><g transform="translate(945,525) scale(0.35,0.35)"><g transform="" style="fill: rgb(255, 255, 255);">
<rect width="100" height="100"/>
</g></g><g transform="translate(35,560) scale(2.5,2.5)"><g transform="" style="fill: rgb(255, 255, 255);">
    <path d="M13.999,0v14c0,0-9.151-4.381-14-0.551C-0.001,13.449-0.242,0,13.999,0z"/>
</g></g><g transform="translate(70,560) scale(0.35,0.35)"><g transform="" style="fill: rgb(255, 255, 255);">
<rect width="100" height="100"/>
</g></g><g transform="translate(105,560) scale(2.5,2.5)"><g transform="" style="fill: rgb(255, 255, 255);">
    <path d="M13.999,13.999H0V0.028v-0.029h3.43C9.269-0.001,13.999,6.267,13.999,13.999z"/>
</g></g><g transform="translate(210,560) scale(0.07,0.07)"><g transform="" style="fill: rgb(255, 255, 255);">
<path d="M250,0c138.077,0,250,111.93,250,250c0,138.077-111.923,250-250,250C111.93,500,0,388.077,0,250C0,111.93,111.93,0,250,0z"
	/>
</g></g><g transform="translate(350,560) scale(2.5,2.5)"><g transform="" style="fill: rgb(255, 255, 255);">
    <path d="M13.999-0.001v14H0.029H0v-3.431C0,4.729,6.267-0.001,13.999-0.001z"/>
</g></g><g transform="translate(385,560) scale(0.35,0.35)"><g transform="" style="fill: rgb(255, 255, 255);">
<rect width="100" height="100"/>
</g></g><g transform="translate(420,560) scale(0.35,0.35)"><g transform="" style="fill: rgb(255, 255, 255);">
<rect width="100" height="100"/>
</g></g><g transform="translate(455,560) scale(0.35,0.35)"><g transform="" style="fill: rgb(255, 255, 255);">
<rect width="100" height="100"/>
</g></g><g transform="translate(490,560) scale(2.5,2.5)"><g transform="" style="fill: rgb(255, 255, 255);">
    <path d="M13.999,13.999H0V0.028v-0.029h3.43C9.269-0.001,13.999,6.267,13.999,13.999z"/>
</g></g><g transform="translate(595,560) scale(2.5,2.5)"><g transform="" style="fill: rgb(255, 255, 255);">
    <path d="M-0.001,0l14,0c0,0-4.381,9.151-0.551,14C13.448,14-0.001,14.24-0.001,0z"/>
</g></g><g transform="translate(665,560) scale(2.5,2.5)"><g transform="" style="fill: rgb(255, 255, 255);">
    <path d="M-0.001,0l14,0c0,0-4.381,9.151-0.551,14C13.448,14-0.001,14.24-0.001,0z"/>
</g></g><g transform="translate(735,560) scale(0.35,0.35)"><g transform="" style="fill: rgb(255, 255, 255);">
<rect width="100" height="100"/>
</g></g><g transform="translate(945,560) scale(2.5,2.5)"><g transform="" style="fill: rgb(255, 255, 255);">
    <path d="M-0.001,0l14,0c0,0-4.381,9.151-0.551,14C13.448,14-0.001,14.24-0.001,0z"/>
</g></g><g transform="translate(70,595) scale(2.5,2.5)"><g transform="" style="fill: rgb(255, 255, 255);">
        <path d="M0-0.001h14v13.97v0.029l-3.431,0.001C4.731,13.999,0,7.731,0-0.001z"/>
</g></g><g transform="translate(105,595) scale(0.35,0.35)"><g transform="" style="fill: rgb(255, 255, 255);">
<rect width="100" height="100"/>
</g></g><g transform="translate(140,595) scale(0.35,0.35)"><g transform="" style="fill: rgb(255, 255, 255);">
<rect width="100" height="100"/>
</g></g><g transform="translate(175,595) scale(2.5,2.5)"><g transform="" style="fill: rgb(255, 255, 255);">
    <path d="M0,14V0c0,0,9.15,4.38,14,0.55C14,0.55,14.24,14,0,14z"/>
</g></g><g transform="translate(315,595) scale(2.5,2.5)"><g transform="" style="fill: rgb(255, 255, 255);">
    <path d="M13.999,0v14c0,0-9.151-4.381-14-0.551C-0.001,13.449-0.242,0,13.999,0z"/>
</g></g><g transform="translate(350,595) scale(0.35,0.35)"><g transform="" style="fill: rgb(255, 255, 255);">
<rect width="100" height="100"/>
</g></g><g transform="translate(385,595) scale(0.35,0.35)"><g transform="" style="fill: rgb(255, 255, 255);">
<rect width="100" height="100"/>
</g></g><g transform="translate(420,595) scale(2.5,2.5)"><g transform="" style="fill: rgb(255, 255, 255);">
    <path d="M0,14V0h13.971H14v3.43C14,9.27,7.732,14,0,14z"/>
</g></g><g transform="translate(490,595) scale(2.5,2.5)"><g transform="" style="fill: rgb(255, 255, 255);">
    <path d="M-0.001,0l14,0c0,0-4.381,9.151-0.551,14C13.448,14-0.001,14.24-0.001,0z"/>
</g></g><g transform="translate(560,595) scale(2.5,2.5)"><g transform="" style="fill: rgb(255, 255, 255);">
    <path d="M14,14H0c0,0,4.38-9.15,0.55-14C0.55,0,14-0.24,14,14z"/>
</g></g><g transform="translate(735,595) scale(0.35,0.35)"><g transform="" style="fill: rgb(255, 255, 255);">
<rect width="100" height="100"/>
</g></g><g transform="translate(770,595) scale(0.35,0.35)"><g transform="" style="fill: rgb(255, 255, 255);">
<rect width="100" height="100"/>
</g></g><g transform="translate(805,595) scale(2.5,2.5)"><g transform="" style="fill: rgb(255, 255, 255);">
    <path d="M13.999,13.999H0V0.028v-0.029h3.43C9.269-0.001,13.999,6.267,13.999,13.999z"/>
</g></g><g transform="translate(875,595) scale(0.07,0.07)"><g transform="" style="fill: rgb(255, 255, 255);">
<path d="M250,0c138.077,0,250,111.93,250,250c0,138.077-111.923,250-250,250C111.93,500,0,388.077,0,250C0,111.93,111.93,0,250,0z"
	/>
</g></g><g transform="translate(980,595) scale(2.5,2.5)"><g transform="" style="fill: rgb(255, 255, 255);">
    <path d="M14,14H0c0,0,4.38-9.15,0.55-14C0.55,0,14-0.24,14,14z"/>
</g></g><g transform="translate(0,630) scale(0.07,0.07)"><g transform="" style="fill: rgb(255, 255, 255);">
<path d="M250,0c138.077,0,250,111.93,250,250c0,138.077-111.923,250-250,250C111.93,500,0,388.077,0,250C0,111.93,111.93,0,250,0z"
	/>
</g></g><g transform="translate(210,630) scale(2.5,2.5)"><g transform="" style="fill: rgb(255, 255, 255);">
    <path d="M13.999,0v14c0,0-9.151-4.381-14-0.551C-0.001,13.449-0.242,0,13.999,0z"/>
</g></g><g transform="translate(245,630) scale(0.35,0.35)"><g transform="" style="fill: rgb(255, 255, 255);">
<rect width="100" height="100"/>
</g></g><g transform="translate(280,630) scale(2.5,2.5)"><g transform="" style="fill: rgb(255, 255, 255);">
    <path d="M13.999,13.999H0V0.028v-0.029h3.43C9.269-0.001,13.999,6.267,13.999,13.999z"/>
</g></g><g transform="translate(385,630) scale(2.5,2.5)"><g transform="" style="fill: rgb(255, 255, 255);">
    <path d="M-0.001,0l14,0c0,0-4.381,9.151-0.551,14C13.448,14-0.001,14.24-0.001,0z"/>
</g></g><g transform="translate(455,630) scale(2.5,2.5)"><g transform="" style="fill: rgb(255, 255, 255);">
    <path d="M14,14H0c0,0,4.38-9.15,0.55-14C0.55,0,14-0.24,14,14z"/>
</g></g><g transform="translate(560,630) scale(2.5,2.5)"><g transform="" style="fill: rgb(255, 255, 255);">
    <path d="M-0.001,0l14,0c0,0-4.381,9.151-0.551,14C13.448,14-0.001,14.24-0.001,0z"/>
</g></g><g transform="translate(735,630) scale(0.35,0.35)"><g transform="" style="fill: rgb(255, 255, 255);">
<rect width="100" height="100"/>
</g></g><g transform="translate(805,630) scale(0.35,0.35)"><g transform="" style="fill: rgb(255, 255, 255);">
<rect width="100" height="100"/>
</g></g><g transform="translate(840,630) scale(2.5,2.5)"><g transform="" style="fill: rgb(255, 255, 255);">
    <path d="M13.999,13.999H0V0.028v-0.029h3.43C9.269-0.001,13.999,6.267,13.999,13.999z"/>
</g></g><g transform="translate(945,630) scale(2.5,2.5)"><g transform="" style="fill: rgb(255, 255, 255);">
    <path d="M13.999-0.001v14H0.029H0v-3.431C0,4.729,6.267-0.001,13.999-0.001z"/>
</g></g><g transform="translate(980,630) scale(0.35,0.35)"><g transform="" style="fill: rgb(255, 255, 255);">
<rect width="100" height="100"/>
</g></g><g transform="translate(140,665) scale(2.5,2.5)"><g transform="" style="fill: rgb(255, 255, 255);">
    <path d="M13.999,0v14c0,0-9.151-4.381-14-0.551C-0.001,13.449-0.242,0,13.999,0z"/>
</g></g><g transform="translate(175,665) scale(2.5,2.5)"><g transform="" style="fill: rgb(255, 255, 255);">
    <path d="M0,14V0c0,0,9.15,4.38,14,0.55C14,0.55,14.24,14,0,14z"/>
</g></g><g transform="translate(245,665) scale(0.35,0.35)"><g transform="" style="fill: rgb(255, 255, 255);">
<rect width="100" height="100"/>
</g></g><g transform="translate(280,665) scale(0.35,0.35)"><g transform="" style="fill: rgb(255, 255, 255);">
<rect width="100" height="100"/>
</g></g><g transform="translate(315,665) scale(2.5,2.5)"><g transform="" style="fill: rgb(255, 255, 255);">
    <path d="M0,14V0c0,0,9.15,4.38,14,0.55C14,0.55,14.24,14,0,14z"/>
</g></g><g transform="translate(455,665) scale(2.5,2.5)"><g transform="" style="fill: rgb(255, 255, 255);">
    <path d="M-0.001,0l14,0c0,0-4.381,9.151-0.551,14C13.448,14-0.001,14.24-0.001,0z"/>
</g></g><g transform="translate(595,665) scale(0.07,0.07)"><g transform="" style="fill: rgb(255, 255, 255);">
<path d="M250,0c138.077,0,250,111.93,250,250c0,138.077-111.923,250-250,250C111.93,500,0,388.077,0,250C0,111.93,111.93,0,250,0z"
	/>
</g></g><g transform="translate(735,665) scale(0.35,0.35)"><g transform="" style="fill: rgb(255, 255, 255);">
<rect width="100" height="100"/>
</g></g><g transform="translate(805,665) scale(0.35,0.35)"><g transform="" style="fill: rgb(255, 255, 255);">
<rect width="100" height="100"/>
</g></g><g transform="translate(840,665) scale(0.35,0.35)"><g transform="" style="fill: rgb(255, 255, 255);">
<rect width="100" height="100"/>
</g></g><g transform="translate(945,665) scale(2.5,2.5)"><g transform="" style="fill: rgb(255, 255, 255);">
        <path d="M0-0.001h14v13.97v0.029l-3.431,0.001C4.731,13.999,0,7.731,0-0.001z"/>
</g></g><g transform="translate(980,665) scale(2.5,2.5)"><g transform="" style="fill: rgb(255, 255, 255);">
    <path d="M0,14V0h13.971H14v3.43C14,9.27,7.732,14,0,14z"/>
</g></g><g transform="translate(0,700) scale(0.07,0.07)"><g transform="" style="fill: rgb(255, 255, 255);">
<path d="M250,0c138.077,0,250,111.93,250,250c0,138.077-111.923,250-250,250C111.93,500,0,388.077,0,250C0,111.93,111.93,0,250,0z"
	/>
</g></g><g transform="translate(70,700) scale(2.5,2.5)"><g transform="" style="fill: rgb(255, 255, 255);">
    <path d="M13.999,0v14c0,0-9.151-4.381-14-0.551C-0.001,13.449-0.242,0,13.999,0z"/>
</g></g><g transform="translate(105,700) scale(2.5,2.5)"><g transform="" style="fill: rgb(255, 255, 255);">
    <path d="M0,14V0c0,0,9.15,4.38,14,0.55C14,0.55,14.24,14,0,14z"/>
</g></g><g transform="translate(210,700) scale(2.5,2.5)"><g transform="" style="fill: rgb(255, 255, 255);">
    <path d="M13.999,0v14c0,0-9.151-4.381-14-0.551C-0.001,13.449-0.242,0,13.999,0z"/>
</g></g><g transform="translate(245,700) scale(0.35,0.35)"><g transform="" style="fill: rgb(255, 255, 255);">
<rect width="100" height="100"/>
</g></g><g transform="translate(280,700) scale(0.35,0.35)"><g transform="" style="fill: rgb(255, 255, 255);">
<rect width="100" height="100"/>
</g></g><g transform="translate(490,700) scale(2.5,2.5)"><g transform="" style="fill: rgb(255, 255, 255);">
    <path d="M13.999,0v14c0,0-9.151-4.381-14-0.551C-0.001,13.449-0.242,0,13.999,0z"/>
</g></g><g transform="translate(525,700) scale(0.35,0.35)"><g transform="" style="fill: rgb(255, 255, 255);">
<rect width="100" height="100"/>
</g></g><g transform="translate(560,700) scale(2.5,2.5)"><g transform="" style="fill: rgb(255, 255, 255);">
    <path d="M13.999,13.999H0V0.028v-0.029h3.43C9.269-0.001,13.999,6.267,13.999,13.999z"/>
</g></g><g transform="translate(665,700) scale(2.5,2.5)"><g transform="" style="fill: rgb(255, 255, 255);">
    <path d="M13.999-0.001v14H0.029H0v-3.431C0,4.729,6.267-0.001,13.999-0.001z"/>
</g></g><g transform="translate(700,700) scale(0.35,0.35)"><g transform="" style="fill: rgb(255, 255, 255);">
<rect width="100" height="100"/>
</g></g><g transform="translate(735,700) scale(0.35,0.35)"><g transform="" style="fill: rgb(255, 255, 255);">
<rect width="100" height="100"/>
</g></g><g transform="translate(770,700) scale(0.35,0.35)"><g transform="" style="fill: rgb(255, 255, 255);">
<rect width="100" height="100"/>
</g></g><g transform="translate(805,700) scale(0.35,0.35)"><g transform="" style="fill: rgb(255, 255, 255);">
<rect width="100" height="100"/>
</g></g><g transform="translate(840,700) scale(0.35,0.35)"><g transform="" style="fill: rgb(255, 255, 255);">
<rect width="100" height="100"/>
</g></g><g transform="translate(910,700) scale(2.5,2.5)"><g transform="" style="fill: rgb(255, 255, 255);">
    <path d="M14,14H0c0,0,4.38-9.15,0.55-14C0.55,0,14-0.24,14,14z"/>
</g></g><g transform="translate(280,735) scale(2.5,2.5)"><g transform="" style="fill: rgb(255, 255, 255);">
    <path d="M-0.001,0l14,0c0,0-4.381,9.151-0.551,14C13.448,14-0.001,14.24-0.001,0z"/>
</g></g><g transform="translate(350,735) scale(0.07,0.07)"><g transform="" style="fill: rgb(255, 255, 255);">
<path d="M250,0c138.077,0,250,111.93,250,250c0,138.077-111.923,250-250,250C111.93,500,0,388.077,0,250C0,111.93,111.93,0,250,0z"
	/>
</g></g><g transform="translate(455,735) scale(2.5,2.5)"><g transform="" style="fill: rgb(255, 255, 255);">
    <path d="M14,14H0c0,0,4.38-9.15,0.55-14C0.55,0,14-0.24,14,14z"/>
</g></g><g transform="translate(560,735) scale(0.35,0.35)"><g transform="" style="fill: rgb(255, 255, 255);">
<rect width="100" height="100"/>
</g></g><g transform="translate(595,735) scale(2.5,2.5)"><g transform="" style="fill: rgb(255, 255, 255);">
    <path d="M0,14V0c0,0,9.15,4.38,14,0.55C14,0.55,14.24,14,0,14z"/>
</g></g><g transform="translate(665,735) scale(2.5,2.5)"><g transform="" style="fill: rgb(255, 255, 255);">
        <path d="M0-0.001h14v13.97v0.029l-3.431,0.001C4.731,13.999,0,7.731,0-0.001z"/>
</g></g><g transform="translate(700,735) scale(0.35,0.35)"><g transform="" style="fill: rgb(255, 255, 255);">
<rect width="100" height="100"/>
</g></g><g transform="translate(840,735) scale(0.35,0.35)"><g transform="" style="fill: rgb(255, 255, 255);">
<rect width="100" height="100"/>
</g></g><g transform="translate(910,735) scale(2.5,2.5)"><g transform="" style="fill: rgb(255, 255, 255);">
        <path d="M0-0.001h14v13.97v0.029l-3.431,0.001C4.731,13.999,0,7.731,0-0.001z"/>
</g></g><g transform="translate(945,735) scale(0.35,0.35)"><g transform="" style="fill: rgb(255, 255, 255);">
<rect width="100" height="100"/>
</g></g><g transform="translate(980,735) scale(2.5,2.5)"><g transform="" style="fill: rgb(255, 255, 255);">
    <path d="M0,14V0c0,0,9.15,4.38,14,0.55C14,0.55,14.24,14,0,14z"/>
</g></g><g transform="translate(315,770) scale(0.07,0.07)"><g transform="" style="fill: rgb(255, 255, 255);">
<path d="M250,0c138.077,0,250,111.93,250,250c0,138.077-111.923,250-250,250C111.93,500,0,388.077,0,250C0,111.93,111.93,0,250,0z"
	/>
</g></g><g transform="translate(385,770) scale(2.5,2.5)"><g transform="" style="fill: rgb(255, 255, 255);">
    <path d="M13.999-0.001v14H0.029H0v-3.431C0,4.729,6.267-0.001,13.999-0.001z"/>
</g></g><g transform="translate(420,770) scale(0.35,0.35)"><g transform="" style="fill: rgb(255, 255, 255);">
<rect width="100" height="100"/>
</g></g><g transform="translate(455,770) scale(0.35,0.35)"><g transform="" style="fill: rgb(255, 255, 255);">
<rect width="100" height="100"/>
</g></g><g transform="translate(490,770) scale(2.5,2.5)"><g transform="" style="fill: rgb(255, 255, 255);">
    <path d="M0,14V0c0,0,9.15,4.38,14,0.55C14,0.55,14.24,14,0,14z"/>
</g></g><g transform="translate(560,770) scale(2.5,2.5)"><g transform="" style="fill: rgb(255, 255, 255);">
    <path d="M-0.001,0l14,0c0,0-4.381,9.151-0.551,14C13.448,14-0.001,14.24-0.001,0z"/>
</g></g><g transform="translate(700,770) scale(0.35,0.35)"><g transform="" style="fill: rgb(255, 255, 255);">
<rect width="100" height="100"/>
</g></g><g transform="translate(770,770) scale(0.07,0.07)"><g transform="" style="fill: rgb(255, 255, 255);">
<path d="M250,0c138.077,0,250,111.93,250,250c0,138.077-111.923,250-250,250C111.93,500,0,388.077,0,250C0,111.93,111.93,0,250,0z"
	/>
</g></g><g transform="translate(840,770) scale(0.35,0.35)"><g transform="" style="fill: rgb(255, 255, 255);">
<rect width="100" height="100"/>
</g></g><g transform="translate(945,770) scale(0.35,0.35)"><g transform="" style="fill: rgb(255, 255, 255);">
<rect width="100" height="100"/>
</g></g><g transform="translate(280,805) scale(0.07,0.07)"><g transform="" style="fill: rgb(255, 255, 255);">
<path d="M250,0c138.077,0,250,111.93,250,250c0,138.077-111.923,250-250,250C111.93,500,0,388.077,0,250C0,111.93,111.93,0,250,0z"
	/>
</g></g><g transform="translate(385,805) scale(2.5,2.5)"><g transform="" style="fill: rgb(255, 255, 255);">
    <path d="M-0.001,0l14,0c0,0-4.381,9.151-0.551,14C13.448,14-0.001,14.24-0.001,0z"/>
</g></g><g transform="translate(455,805) scale(2.5,2.5)"><g transform="" style="fill: rgb(255, 255, 255);">
    <path d="M-0.001,0l14,0c0,0-4.381,9.151-0.551,14C13.448,14-0.001,14.24-0.001,0z"/>
</g></g><g transform="translate(525,805) scale(2.5,2.5)"><g transform="" style="fill: rgb(255, 255, 255);">
    <path d="M14,14H0c0,0,4.38-9.15,0.55-14C0.55,0,14-0.24,14,14z"/>
</g></g><g transform="translate(630,805) scale(0.07,0.07)"><g transform="" style="fill: rgb(255, 255, 255);">
<path d="M250,0c138.077,0,250,111.93,250,250c0,138.077-111.923,250-250,250C111.93,500,0,388.077,0,250C0,111.93,111.93,0,250,0z"
	/>
</g></g><g transform="translate(700,805) scale(0.35,0.35)"><g transform="" style="fill: rgb(255, 255, 255);">
<rect width="100" height="100"/>
</g></g><g transform="translate(840,805) scale(0.35,0.35)"><g transform="" style="fill: rgb(255, 255, 255);">
<rect width="100" height="100"/>
</g></g><g transform="translate(875,805) scale(0.35,0.35)"><g transform="" style="fill: rgb(255, 255, 255);">
<rect width="100" height="100"/>
</g></g><g transform="translate(910,805) scale(0.35,0.35)"><g transform="" style="fill: rgb(255, 255, 255);">
<rect width="100" height="100"/>
</g></g><g transform="translate(945,805) scale(2.5,2.5)"><g transform="" style="fill: rgb(255, 255, 255);">
    <path d="M0,14V0h13.971H14v3.43C14,9.27,7.732,14,0,14z"/>
</g></g><g transform="translate(350,840) scale(0.07,0.07)"><g transform="" style="fill: rgb(255, 255, 255);">
<path d="M250,0c138.077,0,250,111.93,250,250c0,138.077-111.923,250-250,250C111.93,500,0,388.077,0,250C0,111.93,111.93,0,250,0z"
	/>
</g></g><g transform="translate(490,840) scale(2.5,2.5)"><g transform="" style="fill: rgb(255, 255, 255);">
    <path d="M13.999-0.001v14H0.029H0v-3.431C0,4.729,6.267-0.001,13.999-0.001z"/>
</g></g><g transform="translate(525,840) scale(0.35,0.35)"><g transform="" style="fill: rgb(255, 255, 255);">
<rect width="100" height="100"/>
</g></g><g transform="translate(560,840) scale(0.35,0.35)"><g transform="" style="fill: rgb(255, 255, 255);">
<rect width="100" height="100"/>
</g></g><g transform="translate(595,840) scale(2.5,2.5)"><g transform="" style="fill: rgb(255, 255, 255);">
    <path d="M13.999,13.999H0V0.028v-0.029h3.43C9.269-0.001,13.999,6.267,13.999,13.999z"/>
</g></g><g transform="translate(700,840) scale(0.35,0.35)"><g transform="" style="fill: rgb(255, 255, 255);">
<rect width="100" height="100"/>
</g></g><g transform="translate(735,840) scale(0.35,0.35)"><g transform="" style="fill: rgb(255, 255, 255);">
<rect width="100" height="100"/>
</g></g><g transform="translate(770,840) scale(0.35,0.35)"><g transform="" style="fill: rgb(255, 255, 255);">
<rect width="100" height="100"/>
</g></g><g transform="translate(805,840) scale(0.35,0.35)"><g transform="" style="fill: rgb(255, 255, 255);">
<rect width="100" height="100"/>
</g></g><g transform="translate(840,840) scale(0.35,0.35)"><g transform="" style="fill: rgb(255, 255, 255);">
<rect width="100" height="100"/>
</g></g><g transform="translate(280,875) scale(2.5,2.5)"><g transform="" style="fill: rgb(255, 255, 255);">
    <path d="M13.999,0v14c0,0-9.151-4.381-14-0.551C-0.001,13.449-0.242,0,13.999,0z"/>
</g></g><g transform="translate(315,875) scale(2.5,2.5)"><g transform="" style="fill: rgb(255, 255, 255);">
    <path d="M13.999,13.999H0V0.028v-0.029h3.43C9.269-0.001,13.999,6.267,13.999,13.999z"/>
</g></g><g transform="translate(420,875) scale(2.5,2.5)"><g transform="" style="fill: rgb(255, 255, 255);">
    <path d="M13.999-0.001v14H0.029H0v-3.431C0,4.729,6.267-0.001,13.999-0.001z"/>
</g></g><g transform="translate(455,875) scale(0.35,0.35)"><g transform="" style="fill: rgb(255, 255, 255);">
<rect width="100" height="100"/>
</g></g><g transform="translate(490,875) scale(2.5,2.5)"><g transform="" style="fill: rgb(255, 255, 255);">
    <path d="M0,14V0h13.971H14v3.43C14,9.27,7.732,14,0,14z"/>
</g></g><g transform="translate(595,875) scale(2.5,2.5)"><g transform="" style="fill: rgb(255, 255, 255);">
        <path d="M0-0.001h14v13.97v0.029l-3.431,0.001C4.731,13.999,0,7.731,0-0.001z"/>
</g></g><g transform="translate(630,875) scale(0.35,0.35)"><g transform="" style="fill: rgb(255, 255, 255);">
<rect width="100" height="100"/>
</g></g><g transform="translate(665,875) scale(0.35,0.35)"><g transform="" style="fill: rgb(255, 255, 255);">
<rect width="100" height="100"/>
</g></g><g transform="translate(700,875) scale(0.35,0.35)"><g transform="" style="fill: rgb(255, 255, 255);">
<rect width="100" height="100"/>
</g></g><g transform="translate(735,875) scale(0.35,0.35)"><g transform="" style="fill: rgb(255, 255, 255);">
<rect width="100" height="100"/>
</g></g><g transform="translate(770,875) scale(0.35,0.35)"><g transform="" style="fill: rgb(255, 255, 255);">
<rect width="100" height="100"/>
</g></g><g transform="translate(805,875) scale(0.35,0.35)"><g transform="" style="fill: rgb(255, 255, 255);">
<rect width="100" height="100"/>
</g></g><g transform="translate(840,875) scale(0.35,0.35)"><g transform="" style="fill: rgb(255, 255, 255);">
<rect width="100" height="100"/>
</g></g><g transform="translate(875,875) scale(0.35,0.35)"><g transform="" style="fill: rgb(255, 255, 255);">
<rect width="100" height="100"/>
</g></g><g transform="translate(910,875) scale(0.35,0.35)"><g transform="" style="fill: rgb(255, 255, 255);">
<rect width="100" height="100"/>
</g></g><g transform="translate(945,875) scale(2.5,2.5)"><g transform="" style="fill: rgb(255, 255, 255);">
    <path d="M0,14V0c0,0,9.15,4.38,14,0.55C14,0.55,14.24,14,0,14z"/>
</g></g><g transform="translate(315,910) scale(0.35,0.35)"><g transform="" style="fill: rgb(255, 255, 255);">
<rect width="100" height="100"/>
</g></g><g transform="translate(385,910) scale(2.5,2.5)"><g transform="" style="fill: rgb(255, 255, 255);">
    <path d="M13.999-0.001v14H0.029H0v-3.431C0,4.729,6.267-0.001,13.999-0.001z"/>
</g></g><g transform="translate(420,910) scale(0.35,0.35)"><g transform="" style="fill: rgb(255, 255, 255);">
<rect width="100" height="100"/>
</g></g><g transform="translate(455,910) scale(0.35,0.35)"><g transform="" style="fill: rgb(255, 255, 255);">
<rect width="100" height="100"/>
</g></g><g transform="translate(665,910) scale(0.35,0.35)"><g transform="" style="fill: rgb(255, 255, 255);">
<rect width="100" height="100"/>
</g></g><g transform="translate(840,910) scale(0.35,0.35)"><g transform="" style="fill: rgb(255, 255, 255);">
<rect width="100" height="100"/>
</g></g><g transform="translate(875,910) scale(0.35,0.35)"><g transform="" style="fill: rgb(255, 255, 255);">
<rect width="100" height="100"/>
</g></g><g transform="translate(910,910) scale(2.5,2.5)"><g transform="" style="fill: rgb(255, 255, 255);">
    <path d="M0,14V0h13.971H14v3.43C14,9.27,7.732,14,0,14z"/>
</g></g><g transform="translate(980,910) scale(0.07,0.07)"><g transform="" style="fill: rgb(255, 255, 255);">
<path d="M250,0c138.077,0,250,111.93,250,250c0,138.077-111.923,250-250,250C111.93,500,0,388.077,0,250C0,111.93,111.93,0,250,0z"
	/>
</g></g><g transform="translate(315,945) scale(2.5,2.5)"><g transform="" style="fill: rgb(255, 255, 255);">
        <path d="M0-0.001h14v13.97v0.029l-3.431,0.001C4.731,13.999,0,7.731,0-0.001z"/>
</g></g><g transform="translate(350,945) scale(0.35,0.35)"><g transform="" style="fill: rgb(255, 255, 255);">
<rect width="100" height="100"/>
</g></g><g transform="translate(385,945) scale(0.35,0.35)"><g transform="" style="fill: rgb(255, 255, 255);">
<rect width="100" height="100"/>
</g></g><g transform="translate(455,945) scale(0.35,0.35)"><g transform="" style="fill: rgb(255, 255, 255);">
<rect width="100" height="100"/>
</g></g><g transform="translate(490,945) scale(2.5,2.5)"><g transform="" style="fill: rgb(255, 255, 255);">
    <path d="M0,14V0c0,0,9.15,4.38,14,0.55C14,0.55,14.24,14,0,14z"/>
</g></g><g transform="translate(560,945) scale(2.5,2.5)"><g transform="" style="fill: rgb(255, 255, 255);">
    <path d="M13.999,0v14c0,0-9.151-4.381-14-0.551C-0.001,13.449-0.242,0,13.999,0z"/>
</g></g><g transform="translate(595,945) scale(2.5,2.5)"><g transform="" style="fill: rgb(255, 255, 255);">
    <path d="M13.999,13.999H0V0.028v-0.029h3.43C9.269-0.001,13.999,6.267,13.999,13.999z"/>
</g></g><g transform="translate(665,945) scale(2.5,2.5)"><g transform="" style="fill: rgb(255, 255, 255);">
        <path d="M0-0.001h14v13.97v0.029l-3.431,0.001C4.731,13.999,0,7.731,0-0.001z"/>
</g></g><g transform="translate(700,945) scale(2.5,2.5)"><g transform="" style="fill: rgb(255, 255, 255);">
    <path d="M13.999,13.999H0V0.028v-0.029h3.43C9.269-0.001,13.999,6.267,13.999,13.999z"/>
</g></g><g transform="translate(770,945) scale(2.5,2.5)"><g transform="" style="fill: rgb(255, 255, 255);">
    <path d="M13.999-0.001v14H0.029H0v-3.431C0,4.729,6.267-0.001,13.999-0.001z"/>
</g></g><g transform="translate(805,945) scale(0.35,0.35)"><g transform="" style="fill: rgb(255, 255, 255);">
<rect width="100" height="100"/>
</g></g><g transform="translate(840,945) scale(2.5,2.5)"><g transform="" style="fill: rgb(255, 255, 255);">
    <path d="M0,14V0h13.971H14v3.43C14,9.27,7.732,14,0,14z"/>
</g></g><g transform="translate(945,945) scale(2.5,2.5)"><g transform="" style="fill: rgb(255, 255, 255);">
    <path d="M14,14H0c0,0,4.38-9.15,0.55-14C0.55,0,14-0.24,14,14z"/>
</g></g><g transform="translate(280,980) scale(0.07,0.07)"><g transform="" style="fill: rgb(255, 255, 255);">
<path d="M250,0c138.077,0,250,111.93,250,250c0,138.077-111.923,250-250,250C111.93,500,0,388.077,0,250C0,111.93,111.93,0,250,0z"
	/>
</g></g><g transform="translate(350,980) scale(2.5,2.5)"><g transform="" style="fill: rgb(255, 255, 255);">
        <path d="M0-0.001h14v13.97v0.029l-3.431,0.001C4.731,13.999,0,7.731,0-0.001z"/>
</g></g><g transform="translate(385,980) scale(2.5,2.5)"><g transform="" style="fill: rgb(255, 255, 255);">
    <path d="M0,14V0h13.971H14v3.43C14,9.27,7.732,14,0,14z"/>
</g></g><g transform="translate(455,980) scale(2.5,2.5)"><g transform="" style="fill: rgb(255, 255, 255);">
    <path d="M-0.001,0l14,0c0,0-4.381,9.151-0.551,14C13.448,14-0.001,14.24-0.001,0z"/>
</g></g><g transform="translate(525,980) scale(0.07,0.07)"><g transform="" style="fill: rgb(255, 255, 255);">
<path d="M250,0c138.077,0,250,111.93,250,250c0,138.077-111.923,250-250,250C111.93,500,0,388.077,0,250C0,111.93,111.93,0,250,0z"
	/>
</g></g><g transform="translate(595,980) scale(2.5,2.5)"><g transform="" style="fill: rgb(255, 255, 255);">
        <path d="M0-0.001h14v13.97v0.029l-3.431,0.001C4.731,13.999,0,7.731,0-0.001z"/>
</g></g><g transform="translate(630,980) scale(2.5,2.5)"><g transform="" style="fill: rgb(255, 255, 255);">
    <path d="M0,14V0c0,0,9.15,4.38,14,0.55C14,0.55,14.24,14,0,14z"/>
</g></g><g transform="translate(700,980) scale(2.5,2.5)"><g transform="" style="fill: rgb(255, 255, 255);">
    <path d="M-0.001,0l14,0c0,0-4.381,9.151-0.551,14C13.448,14-0.001,14.24-0.001,0z"/>
</g></g><g transform="translate(770,980) scale(2.5,2.5)"><g transform="" style="fill: rgb(255, 255, 255);">
        <path d="M0-0.001h14v13.97v0.029l-3.431,0.001C4.731,13.999,0,7.731,0-0.001z"/>
</g></g><g transform="translate(805,980) scale(2.5,2.5)"><g transform="" style="fill: rgb(255, 255, 255);">
    <path d="M0,14V0h13.971H14v3.43C14,9.27,7.732,14,0,14z"/>
</g></g><g transform="translate(875,980) scale(0.07,0.07)"><g transform="" style="fill: rgb(255, 255, 255);">
<path d="M250,0c138.077,0,250,111.93,250,250c0,138.077-111.923,250-250,250C111.93,500,0,388.077,0,250C0,111.93,111.93,0,250,0z"
	/>
</g></g><g transform="translate(945,980) scale(2.5,2.5)"><g transform="" style="fill: rgb(255, 255, 255);">
    <path d="M-0.001,0l14,0c0,0-4.381,9.151-0.551,14C13.448,14-0.001,14.24-0.001,0z"/>
</g></g><g transform="translate(0,0) scale(2.45, 2.45)"><g transform=" translate(0,100) scale(1,-1) " style="fill: rgb(255, 255, 255);">
<g>
</g>
<g>
	<path style="fill:none;" d="M84.997,28.739C78.951,25.757,74.22,21.056,71.09,14.94H27.75c-0.562,0.145-1.072,0.269-1.496,0.372
		l-0.125,0.031c-1.139,0.282-2.316,0.573-2.943,0.839c-1.639,0.692-3.165,2.181-4.602,3.719c-1.336,1.423-2.205,2.952-2.648,4.662
		l-0.112,0.514c-0.38,1.713-0.811,3.652-0.824,4.807l0.08,22.687l-0.077,18.571c6.039,2.979,10.769,7.678,13.905,13.798h43.357
		c0.575-0.149,1.085-0.275,1.481-0.371l0.125-0.031c1.14-0.282,2.318-0.573,2.971-0.849c1.606-0.676,3.143-2.171,4.56-3.684
		c1.349-1.439,2.224-2.98,2.667-4.702l0.108-0.5c0.38-1.712,0.811-3.651,0.823-4.808l-0.08-22.686L84.997,28.739z"/>
	<path d="M100,27.994c0-6.328-2.49-10.162-7.49-12.305c-4.319-1.842-7.38-5.196-9.109-9.992C82.01,1.822,79.14-0.06,74.64-0.06
		c-0.029,0-0.06,0-0.09,0H25.83c-0.06,0.01-0.13,0-0.19,0.02c-0.98,0.3-2,0.55-2.99,0.791c-1.74,0.431-3.55,0.871-5.3,1.612
		c-4.22,1.782-7.27,4.666-9.7,7.269c-3.3,3.514-5.46,7.579-6.45,12.064l-0.02,0.13C0.6,24.439,0.01,27.153,0,29.866l0.08,22.757
		L0,71.887c0,6.327,2.49,10.161,7.49,12.305c4.32,1.842,7.38,5.206,9.11,9.991c1.39,3.875,4.26,5.757,8.76,5.757
		c0.03,0,0.06,0,0.09,0c0.12,0,0.25,0,0.38,0h48.34c0,0,0,0,0.01,0h0.181v-0.02c0.979-0.29,2-0.551,2.989-0.791
		c1.74-0.431,3.551-0.871,5.301-1.611c4.22-1.772,7.27-4.666,9.699-7.259c3.301-3.524,5.46-7.59,6.45-12.074l0.021-0.131
		c0.58-2.613,1.17-5.316,1.18-8.039l-0.08-22.758L100,27.994z M84.177,74.803l-0.108,0.5c-0.443,1.722-1.318,3.263-2.667,4.702
		c-1.417,1.513-2.953,3.008-4.56,3.684c-0.652,0.275-1.831,0.566-2.971,0.849l-0.125,0.031c-0.396,0.096-0.906,0.222-1.481,0.371
		H28.908c-3.136-6.12-7.866-10.819-13.905-13.798L15.08,52.57L15,29.884c0.013-1.155,0.443-3.094,0.824-4.807l0.112-0.514
		c0.443-1.71,1.312-3.239,2.648-4.662c1.437-1.539,2.963-3.027,4.602-3.719c0.627-0.266,1.805-0.557,2.943-0.839l0.125-0.031
		c0.424-0.103,0.934-0.227,1.496-0.372H71.09c3.13,6.116,7.861,10.817,13.907,13.799l-0.077,18.57L85,69.995
		C84.987,71.151,84.557,73.091,84.177,74.803z"/>
</g>
</g></g><g transform="translate(770,0) scale(2.45, 2.45)"><g transform="" style="fill: rgb(255, 255, 255);">
<g>
</g>
<g>
	<path style="fill:none;" d="M84.997,28.739C78.951,25.757,74.22,21.056,71.09,14.94H27.75c-0.562,0.145-1.072,0.269-1.496,0.372
		l-0.125,0.031c-1.139,0.282-2.316,0.573-2.943,0.839c-1.639,0.692-3.165,2.181-4.602,3.719c-1.336,1.423-2.205,2.952-2.648,4.662
		l-0.112,0.514c-0.38,1.713-0.811,3.652-0.824,4.807l0.08,22.687l-0.077,18.571c6.039,2.979,10.769,7.678,13.905,13.798h43.357
		c0.575-0.149,1.085-0.275,1.481-0.371l0.125-0.031c1.14-0.282,2.318-0.573,2.971-0.849c1.606-0.676,3.143-2.171,4.56-3.684
		c1.349-1.439,2.224-2.98,2.667-4.702l0.108-0.5c0.38-1.712,0.811-3.651,0.823-4.808l-0.08-22.686L84.997,28.739z"/>
	<path d="M100,27.994c0-6.328-2.49-10.162-7.49-12.305c-4.319-1.842-7.38-5.196-9.109-9.992C82.01,1.822,79.14-0.06,74.64-0.06
		c-0.029,0-0.06,0-0.09,0H25.83c-0.06,0.01-0.13,0-0.19,0.02c-0.98,0.3-2,0.55-2.99,0.791c-1.74,0.431-3.55,0.871-5.3,1.612
		c-4.22,1.782-7.27,4.666-9.7,7.269c-3.3,3.514-5.46,7.579-6.45,12.064l-0.02,0.13C0.6,24.439,0.01,27.153,0,29.866l0.08,22.757
		L0,71.887c0,6.327,2.49,10.161,7.49,12.305c4.32,1.842,7.38,5.206,9.11,9.991c1.39,3.875,4.26,5.757,8.76,5.757
		c0.03,0,0.06,0,0.09,0c0.12,0,0.25,0,0.38,0h48.34c0,0,0,0,0.01,0h0.181v-0.02c0.979-0.29,2-0.551,2.989-0.791
		c1.74-0.431,3.551-0.871,5.301-1.611c4.22-1.772,7.27-4.666,9.699-7.259c3.301-3.524,5.46-7.59,6.45-12.074l0.021-0.131
		c0.58-2.613,1.17-5.316,1.18-8.039l-0.08-22.758L100,27.994z M84.177,74.803l-0.108,0.5c-0.443,1.722-1.318,3.263-2.667,4.702
		c-1.417,1.513-2.953,3.008-4.56,3.684c-0.652,0.275-1.831,0.566-2.971,0.849l-0.125,0.031c-0.396,0.096-0.906,0.222-1.481,0.371
		H28.908c-3.136-6.12-7.866-10.819-13.905-13.798L15.08,52.57L15,29.884c0.013-1.155,0.443-3.094,0.824-4.807l0.112-0.514
		c0.443-1.71,1.312-3.239,2.648-4.662c1.437-1.539,2.963-3.027,4.602-3.719c0.627-0.266,1.805-0.557,2.943-0.839l0.125-0.031
		c0.424-0.103,0.934-0.227,1.496-0.372H71.09c3.13,6.116,7.861,10.817,13.907,13.799l-0.077,18.57L85,69.995
		C84.987,71.151,84.557,73.091,84.177,74.803z"/>
</g>
</g></g><g transform="translate(0,770) scale(2.45, 2.45)"><g transform="" style="fill: rgb(255, 255, 255);">
<g>
</g>
<g>
	<path style="fill:none;" d="M84.997,28.739C78.951,25.757,74.22,21.056,71.09,14.94H27.75c-0.562,0.145-1.072,0.269-1.496,0.372
		l-0.125,0.031c-1.139,0.282-2.316,0.573-2.943,0.839c-1.639,0.692-3.165,2.181-4.602,3.719c-1.336,1.423-2.205,2.952-2.648,4.662
		l-0.112,0.514c-0.38,1.713-0.811,3.652-0.824,4.807l0.08,22.687l-0.077,18.571c6.039,2.979,10.769,7.678,13.905,13.798h43.357
		c0.575-0.149,1.085-0.275,1.481-0.371l0.125-0.031c1.14-0.282,2.318-0.573,2.971-0.849c1.606-0.676,3.143-2.171,4.56-3.684
		c1.349-1.439,2.224-2.98,2.667-4.702l0.108-0.5c0.38-1.712,0.811-3.651,0.823-4.808l-0.08-22.686L84.997,28.739z"/>
	<path d="M100,27.994c0-6.328-2.49-10.162-7.49-12.305c-4.319-1.842-7.38-5.196-9.109-9.992C82.01,1.822,79.14-0.06,74.64-0.06
		c-0.029,0-0.06,0-0.09,0H25.83c-0.06,0.01-0.13,0-0.19,0.02c-0.98,0.3-2,0.55-2.99,0.791c-1.74,0.431-3.55,0.871-5.3,1.612
		c-4.22,1.782-7.27,4.666-9.7,7.269c-3.3,3.514-5.46,7.579-6.45,12.064l-0.02,0.13C0.6,24.439,0.01,27.153,0,29.866l0.08,22.757
		L0,71.887c0,6.327,2.49,10.161,7.49,12.305c4.32,1.842,7.38,5.206,9.11,9.991c1.39,3.875,4.26,5.757,8.76,5.757
		c0.03,0,0.06,0,0.09,0c0.12,0,0.25,0,0.38,0h48.34c0,0,0,0,0.01,0h0.181v-0.02c0.979-0.29,2-0.551,2.989-0.791
		c1.74-0.431,3.551-0.871,5.301-1.611c4.22-1.772,7.27-4.666,9.699-7.259c3.301-3.524,5.46-7.59,6.45-12.074l0.021-0.131
		c0.58-2.613,1.17-5.316,1.18-8.039l-0.08-22.758L100,27.994z M84.177,74.803l-0.108,0.5c-0.443,1.722-1.318,3.263-2.667,4.702
		c-1.417,1.513-2.953,3.008-4.56,3.684c-0.652,0.275-1.831,0.566-2.971,0.849l-0.125,0.031c-0.396,0.096-0.906,0.222-1.481,0.371
		H28.908c-3.136-6.12-7.866-10.819-13.905-13.798L15.08,52.57L15,29.884c0.013-1.155,0.443-3.094,0.824-4.807l0.112-0.514
		c0.443-1.71,1.312-3.239,2.648-4.662c1.437-1.539,2.963-3.027,4.602-3.719c0.627-0.266,1.805-0.557,2.943-0.839l0.125-0.031
		c0.424-0.103,0.934-0.227,1.496-0.372H71.09c3.13,6.116,7.861,10.817,13.907,13.799l-0.077,18.57L85,69.995
		C84.987,71.151,84.557,73.091,84.177,74.803z"/>
</g>
</g></g><g transform="translate(70,70) scale(1.05, 1.05)"><g transform="" style="fill: rgb(255, 255, 255);">
<path d="M0,100C5.883,66.733,5.883,33.283-0.003,0.001C16.67,2.956,33.395,4.447,50,4.447c16.601,0,33.321-1.49,50-4.447
	c-5.886,33.269-5.886,66.715,0.003,100C83.331,97.045,66.605,95.553,50,95.553C33.398,95.553,16.676,97.044,0,100z"/>
</g></g><g transform="translate(840,70) scale(1.05, 1.05)"><g transform="" style="fill: rgb(255, 255, 255);">
<path d="M0,100C5.883,66.733,5.883,33.283-0.003,0.001C16.67,2.956,33.395,4.447,50,4.447c16.601,0,33.321-1.49,50-4.447
	c-5.886,33.269-5.886,66.715,0.003,100C83.331,97.045,66.605,95.553,50,95.553C33.398,95.553,16.676,97.044,0,100z"/>
</g></g><g transform="translate(70,840) scale(1.05, 1.05)"><g transform="" style="fill: rgb(255, 255, 255);">
<path d="M0,100C5.883,66.733,5.883,33.283-0.003,0.001C16.67,2.956,33.395,4.447,50,4.447c16.601,0,33.321-1.49,50-4.447
	c-5.886,33.269-5.886,66.715,0.003,100C83.331,97.045,66.605,95.553,50,95.553C33.398,95.553,16.676,97.044,0,100z"/>
</g></g></g></mask></defs></g><rect x="0" y="0" width="1015" height="1015" fill="url(#grad)" mask="url(#gmask)" /></g></svg>